<?xml version="1.0" encoding="utf-8"?>
<!-- Generator: Adobe Illustrator 21.0.2, SVG Export Plug-In . SVG Version: 6.00 Build 0)  -->
<svg version="1.1" id="Layer_1" xmlns="http://www.w3.org/2000/svg" xmlns:xlink="http://www.w3.org/1999/xlink" x="0px" y="0px"
	 viewBox="0 0 300 300" style="enable-background:new 0 0 300 300;" xml:space="preserve">
<style type="text/css">
	.st0{fill:#808080;}
</style>
<polygon class="st0" points="223.5,198 223.5,226.9 208.1,226.9 245.8,264.6 231.8,278.6 282,278.6 282,228.4 268,242.4 "/>
<polygon class="st0" points="231.8,19.6 245.8,33.6 208.1,71.3 223.5,71.3 223.5,100.2 268,55.8 282,69.8 282,19.6 "/>
<polygon class="st0" points="77.4,226.9 77.4,198 33,242.4 19,228.4 19,278.6 69.2,278.6 55.2,264.6 92.9,226.9 "/>
<polygon class="st0" points="77.4,100.2 77.4,71.3 92.9,71.3 55.2,33.6 69.2,19.6 19,19.6 19,69.8 33,55.8 "/>
<rect x="94.3" y="89.2" class="st0" width="112.4" height="119.7"/>
</svg>
